<svg width="1770" height="1770" viewBox="0 0 1770 1770" fill="none" xmlns="http://www.w3.org/2000/svg">
<path d="M75 885L270 545L660 1225L855 1565H465L75 885Z" fill="url(#paint0_linear_243_859)"/>
<path d="M660 1225H1440L1245 1565H855L660 1225Z" fill="url(#paint1_linear_243_859)"/>
<path d="M465 205H855L465 885L270 545L465 205Z" fill="url(#paint2_linear_243_859)"/>
<path d="M855 205H1245L1050 545H660L855 205Z" fill="url(#paint3_linear_243_859)"/>
<path d="M1498.85 266.298C1498.85 232.444 1471.4 205 1437.55 205C1403.69 205 1376.25 232.444 1376.25 266.298C1376.25 300.152 1403.69 327.597 1437.55 327.597C1471.4 327.597 1498.85 300.152 1498.85 266.298Z" fill="#323232"/>
<path d="M1273.27 587.516H1273.27C1224.52 587.516 1185 627.035 1185 675.784C1185 724.534 1224.52 764.053 1273.27 764.053H1273.27C1322.02 764.053 1361.54 724.534 1361.54 675.784C1361.54 627.035 1322.02 587.516 1273.27 587.516Z" fill="#343434"/>
<path d="M1695 1097.5C1695 1027.08 1637.92 970 1567.5 970C1497.08 970 1440 1027.08 1440 1097.5C1440 1167.92 1497.08 1225 1567.5 1225C1637.92 1225 1695 1167.92 1695 1097.5Z" fill="#474747"/>
<defs>
<linearGradient id="paint0_linear_243_859" x1="265" y1="592" x2="465" y2="1565" gradientUnits="userSpaceOnUse">
<stop stop-color="#4D4D4D"/>
<stop offset="1" stop-color="#3D3D3D"/>
</linearGradient>
<linearGradient id="paint1_linear_243_859" x1="1416.5" y1="1225" x2="1069.82" y2="1579.01" gradientUnits="userSpaceOnUse">
<stop stop-color="#595959"/>
<stop offset="1" stop-color="#373737"/>
</linearGradient>
<linearGradient id="paint2_linear_243_859" x1="687" y1="205" x2="314.903" y2="438.677" gradientUnits="userSpaceOnUse">
<stop stop-color="#404040"/>
<stop offset="1" stop-color="#3A3A3A"/>
</linearGradient>
<linearGradient id="paint3_linear_243_859" x1="1245" y1="473.5" x2="673" y2="528" gradientUnits="userSpaceOnUse">
<stop stop-color="#474747"/>
<stop offset="1" stop-color="#2C2C2C"/>
</linearGradient>
</defs>
</svg>
